<svg width="250" height="250" viewBox="0 0 250 250" fill="none" xmlns="http://www.w3.org/2000/svg">
<path d="M214.444 10C221.222 10 227.722 12.6925 232.515 17.485C237.308 22.2776 240 28.7778 240 35.5556V214.444C240 221.222 237.308 227.722 232.515 232.515C227.722 237.308 221.222 240 214.444 240H35.5556C28.7778 240 22.2776 237.308 17.485 232.515C12.6925 227.722 10 221.222 10 214.444V35.5556C10 28.7778 12.6925 22.2776 17.485 17.485C22.2776 12.6925 28.7778 10 35.5556 10H214.444ZM208.056 208.056V140.333C208.056 129.286 203.667 118.69 195.855 110.878C188.043 103.066 177.448 98.6778 166.4 98.6778C155.539 98.6778 142.889 105.322 136.756 115.289V101.106H101.106V208.056H136.756V145.061C136.756 135.222 144.678 127.172 154.517 127.172C159.261 127.172 163.811 129.057 167.166 132.412C170.521 135.767 172.406 140.317 172.406 145.061V208.056H208.056ZM59.5778 81.0444C65.2711 81.0444 70.7312 78.7828 74.757 74.757C78.7828 70.7312 81.0444 65.2711 81.0444 59.5778C81.0444 47.6944 71.4611 37.9833 59.5778 37.9833C53.8506 37.9833 48.3579 40.2585 44.3082 44.3082C40.2585 48.3579 37.9833 53.8506 37.9833 59.5778C37.9833 71.4611 47.6944 81.0444 59.5778 81.0444ZM77.3389 208.056V101.106H41.9444V208.056H77.3389Z" fill="url(#paint0_linear_139_127)"/>
<defs>
<linearGradient id="paint0_linear_139_127" x1="10" y1="125" x2="246.456" y2="205.193" gradientUnits="userSpaceOnUse">
<stop stop-color="#FFA8AB"/>
<stop offset="1" stop-color="#5D59FF"/>
</linearGradient>
</defs>
</svg>
