<svg width="250" height="250" viewBox="0 0 250 250" fill="none" xmlns="http://www.w3.org/2000/svg">
<path fill-rule="evenodd" clip-rule="evenodd" d="M179.195 239.967C162.607 239.357 115.596 232.861 66.3618 183.649C17.1391 134.424 10.6536 87.4347 10.0316 70.8385C9.11003 45.5469 28.4858 20.9809 50.8681 11.3872C53.5634 10.2236 56.515 9.78054 59.4332 10.1016C62.3514 10.4226 65.136 11.4967 67.5138 13.2184C85.9449 26.6473 98.6624 46.9635 109.583 62.9378C111.986 66.4474 113.013 70.7181 112.469 74.9363C111.925 79.1544 109.848 83.0251 106.634 85.8108L84.1594 102.499C83.0736 103.283 82.3093 104.434 82.0084 105.739C81.7076 107.044 81.8906 108.414 82.5236 109.594C87.6152 118.842 96.6695 132.616 107.037 142.982C117.416 153.347 131.838 162.998 141.734 168.665C142.974 169.361 144.435 169.556 145.815 169.209C147.194 168.862 148.389 167.999 149.152 166.799L163.782 144.537C166.472 140.964 170.439 138.571 174.854 137.859C179.269 137.146 183.789 138.169 187.466 140.713C203.674 151.93 222.589 164.427 236.435 182.151C238.297 184.546 239.481 187.396 239.864 190.405C240.247 193.414 239.815 196.47 238.612 199.254C228.971 221.747 204.572 240.9 179.195 239.967Z" fill="url(#paint0_linear_139_125)"/>
<defs>
<linearGradient id="paint0_linear_139_125" x1="10" y1="125" x2="246.456" y2="205.193" gradientUnits="userSpaceOnUse">
<stop stop-color="#FFA8AB"/>
<stop offset="1" stop-color="#5D59FF"/>
</linearGradient>
</defs>
</svg>
